nColumns=19
nRows=22
DataType=double
version=3
OpenSimVersion=4.1
endheader
time	ground_force_calcn_l_vx	ground_force_calcn_l_vy	ground_force_calcn_l_vz	ground_force_calcn_l_px	ground_force_calcn_l_py	ground_force_calcn_l_pz	ground_force_calcn_l_mx	ground_force_calcn_l_my	ground_force_calcn_l_mz	ground_force_calcn_r_vx	ground_force_calcn_r_vy	ground_force_calcn_r_vz	ground_force_calcn_r_px	ground_force_calcn_r_py	ground_force_calcn_r_pz	ground_force_calcn_r_mx	ground_force_calcn_r_my	ground_force_calcn_r_mz
8.0425	-2.87126	360.676	-29.3169	-0.118395	-1.30278e-17	0.137022	0.0370994	-4.66028	0.378802	-5.08469	351.923	27.6043	-0.0986109	-1.09185e-17	-0.157725	-0.0172405	1.19326	0.0935972
8.0525	-2.85254	360.817	-29.382	-0.118466	-1.30353e-17	0.13705	0.0369332	-4.67167	0.380423	-5.08968	351.886	27.5943	-0.0987733	-1.09369e-17	-0.157728	-0.0170052	1.17569	0.0921955
8.06249	-2.80404	360.99	-29.4382	-0.118585	-1.30485e-17	0.137098	0.0362721	-4.66963	0.380801	-5.09614	351.844	27.6046	-0.0989222	-1.09544e-17	-0.157698	-0.0164933	1.13872	0.0893405
8.07248	-2.72371	361.18	-29.4751	-0.118768	-1.30689e-17	0.137181	0.0351658	-4.6632	0.380553	-5.11253	351.794	27.6491	-0.0990386	-1.09687e-17	-0.157645	-0.0157139	1.08128	0.0849827
8.08247	-2.61517	361.358	-29.4841	-0.119024	-1.30975e-17	0.137312	0.0337237	-4.65985	0.380209	-5.14629	351.731	27.7373	-0.0991147	-1.09789e-17	-0.157582	-0.0146915	1.00411	0.079184
8.09246	-2.47585	361.503	-29.4596	-0.11934	-1.31327e-17	0.1375	0.0319293	-4.66205	0.37992	-5.20236	351.666	27.8652	-0.0991422	-1.09842e-17	-0.157526	-0.0134966	0.912335	0.0722914
8.10245	-2.30929	361.605	-29.4047	-0.119703	-1.31731e-17	0.137729	0.0298069	-4.66738	0.379537	-5.2773	351.605	28.0144	-0.0991162	-1.09837e-17	-0.157486	-0.0121827	0.811683	0.0646716
8.11244	-2.12349	361.661	-29.3189	-0.120087	-1.32159e-17	0.137994	0.0274663	-4.67793	0.379226	-5.36557	351.547	28.1794	-0.0990397	-1.09775e-17	-0.157464	-0.010931	0.716189	0.0574086
8.12243	-1.92604	361.683	-29.2095	-0.120467	-1.32581e-17	0.13828	0.0249899	-4.69275	0.378986	-5.4567	351.487	28.3411	-0.0989335	-1.09676e-17	-0.157456	-0.00986261	0.635288	0.0512246
8.13242	-1.7304	361.669	-29.0977	-0.120835	-1.32992e-17	0.138553	0.0225166	-4.70617	0.37863	-5.54138	351.429	28.4768	-0.0988175	-1.09561e-17	-0.157464	-0.00914731	0.580113	0.0470073
8.14241	-1.55036	361.625	-28.9924	-0.121196	-1.33395e-17	0.138784	0.0201893	-4.70922	0.37755	-5.61496	351.38	28.5775	-0.098704	-1.09441e-17	-0.157486	-0.00887049	0.555109	0.0451466
8.1524	-1.38894	361.567	-28.8972	-0.121544	-1.33787e-17	0.138962	0.0180481	-4.69825	0.375495	-5.67303	351.344	28.6407	-0.0986012	-1.09326e-17	-0.157507	-0.00896383	0.55515	0.0452545
8.16239	-1.25127	361.506	-28.8197	-0.121873	-1.34163e-17	0.139071	0.0161628	-4.6696	0.372266	-5.69668	351.329	28.6746	-0.0984911	-1.09196e-17	-0.15752	-0.00946983	0.584029	0.047667
8.17238	-1.1428	361.441	-28.7659	-0.122185	-1.34521e-17	0.13911	0.0146319	-4.62774	0.368307	-5.69277	351.35	28.6734	-0.098391	-1.09072e-17	-0.157526	-0.0103121	0.636451	0.0519403
8.18237	-1.06281	361.369	-28.7445	-0.122485	-1.34868e-17	0.139092	0.0134608	-4.57687	0.36406	-5.67011	351.409	28.6391	-0.0983271	-1.08986e-17	-0.157529	-0.0112397	0.696586	0.0567702
8.19236	-0.995708	361.289	-28.7523	-0.122763	-1.35186e-17	0.139049	0.0124907	-4.53219	0.360684	-5.64819	351.502	28.5788	-0.098309	-1.08953e-17	-0.157535	-0.0120259	0.748402	0.0608487
8.20236	-0.928457	361.212	-28.7718	-0.123019	-1.35476e-17	0.139013	0.0115826	-4.50616	0.358932	-5.64282	351.612	28.5185	-0.0983212	-1.08957e-17	-0.157559	-0.012627	0.786805	0.063816
8.21235	-0.86196	361.134	-28.7863	-0.12325	-1.3573e-17	0.139005	0.0107621	-4.50896	0.359414	-5.66671	351.732	28.4731	-0.0983398	-1.08971e-17	-0.157606	-0.013151	0.81628	0.0660788
8.22234	-0.7944	361.059	-28.7803	-0.123436	-1.35928e-17	0.139039	0.0099939	-4.54228	0.362069	-5.7174	351.856	28.4391	-0.0983455	-1.08972e-17	-0.157675	-0.0136068	0.837378	0.067682
8.23233	-0.733076	360.995	-28.7468	-0.123568	-1.36062e-17	0.13912	0.00934031	-4.59953	0.36627	-5.79048	351.966	28.4153	-0.0983459	-1.08968e-17	-0.157763	-0.0140686	0.85514	0.0690383
8.24232	-0.683558	360.961	-28.6872	-0.123643	-1.36128e-17	0.13925	0.00885372	-4.67532	0.371569	-5.87378	352.046	28.3951	-0.0983423	-1.08961e-17	-0.157851	-0.0144709	0.867316	0.0699554
8.25231	-0.656281	360.96	-28.6133	-0.123662	-1.36132e-17	0.1394	0.00864843	-4.7567	0.377064	-5.95549	352.104	28.3778	-0.0983072	-1.08921e-17	-0.157927	-0.0147663	0.873019	0.0703609
